<?xml version="1.0" encoding="UTF-8" standalone="no"?>
<svg width="1013px" height="1033px" viewBox="0 0 1013 1033" version="1.1" xmlns="http://www.w3.org/2000/svg" xmlns:xlink="http://www.w3.org/1999/xlink" xmlns:sketch="http://www.bohemiancoding.com/sketch/ns">
    <title>googleplus</title>
    <description>Created with Sketch (http://www.bohemiancoding.com/sketch)</description>
    <defs>
        <linearGradient x1="49.9998453%" y1="0.000177056175%" x2="49.9998453%" y2="100.000177%" id="linearGradient-1">
            <stop stop-color="#F2F2F2" offset="0%"></stop>
            <stop stop-color="#F6F6F6" offset="24.13%"></stop>
            <stop stop-color="#FFFFFF" offset="100%"></stop>
        </linearGradient>
        <linearGradient x1="50.0001778%" y1="0.000283467108%" x2="50.0001778%" y2="100.000164%" id="linearGradient-2">
            <stop stop-color="#F2F2F2" offset="0%"></stop>
            <stop stop-color="#F6F6F6" offset="24.13%"></stop>
            <stop stop-color="#FFFFFF" offset="100%"></stop>
        </linearGradient>
    </defs>
    <g id="Page-1" stroke="none" stroke-width="1" fill="none" fill-rule="evenodd" sketch:type="MSPage">
        <g id="googleplus" sketch:type="MSLayerGroup" transform="translate(6.000000, 11.000000)">
            <rect d="M40.4926234,0.5 C18.4053074,0.5 0.5,18.414903 0.5,40.4926234 L0.5,960.507377 C0.5,982.594693 18.414903,1000.5 40.4926234,1000.5 L960.507377,1000.5 C982.594693,1000.5 1000.5,982.585097 1000.5,960.507377 L1000.5,40.4926234 C1000.5,18.4053074 982.585097,0.5 960.507377,0.5 L40.4926234,0.5 Z M40.4926234,0.5" id="Rectangle" fill="#DD4B39" sketch:type="MSShapeGroup" x="0.5" y="0.5" width="1000" height="1000" rx="40"></rect>
            <g id="Group" transform="translate(0.000000, 82.000000)" sketch:type="MSShapeGroup">
                <path d="M813.791,186.355 L813.791,0.32 L734.057,0.32 L734.057,186.355 L548.012,186.355 L548.012,264.47 L734.057,264.47 L734.057,452.154 L813.791,452.154 L813.791,264.47 L1000.5,264.47 L1000.5,186.355 L813.791,186.355 Z M813.791,186.355" id="Shape" fill="url(#linearGradient-1)"></path>
                <path d="M0.5,464.254 C40.704,497.672 83.591,511.9 150.173,511.9 C164.88,511.9 180.964,510.406 197.136,508.941 C189.822,526.656 182.468,541.392 182.468,566.412 C182.468,612.007 205.906,639.956 226.472,666.499 C170.398,670.288 84.249,671.987 0.5,707.943 L0.5,785.15 C30.792,744.017 67.371,739.076 88.552,731.351 C150.173,710.716 229.402,707.747 242.663,707.747 C257.263,707.747 264.597,707.747 276.276,709.261 C387.857,788.812 459.575,828.441 459.575,903.665 C459.575,911.614 459.595,914.349 459.292,918.499 L547.055,918.45 C555.649,890.647 560.131,873.421 560.131,846.165 C560.16,744.563 475.845,694.427 411.314,639.936 L358.444,598.793 C342.321,585.532 320.339,567.847 320.339,535.522 C320.339,503.081 342.321,482.417 361.403,463.315 C423.023,414.79 480.435,363.169 480.435,254.234 C480.435,154.772 426.705,98.932 390.689,67.721 L480.591,67.721 L562.953,1.285 L252.898,1.285 C175.945,2.711 84.122,14.254 0.5,83.482 L0.5,464.254 Z M224.128,453.131 C97.937,453.131 46.14,307.242 46.14,208.65 C46.14,170.292 49.988,130.614 74.929,99.676 C98.445,70.213 139.48,51.092 177.644,51.092 C299.343,51.092 360.808,215.984 360.808,322.028 C360.808,343.258 350.007,384.762 322.488,416.286 C298.366,443.785 260.769,453.131 224.128,453.131 L224.128,453.131 L224.128,453.131 L224.128,453.131 Z M224.128,453.131" id="Shape" fill="url(#linearGradient-2)"></path>
            </g>
        </g>
    </g>
</svg>