<?xml version="1.0" encoding="UTF-8" standalone="no"?>
<svg width="75px" height="74px" viewBox="0 0 75 74" version="1.1" xmlns="http://www.w3.org/2000/svg" xmlns:xlink="http://www.w3.org/1999/xlink" xmlns:sketch="http://www.bohemiancoding.com/sketch/ns">
    <title>LinkedIn_Logo</title>
    <description>Created with Sketch (http://www.bohemiancoding.com/sketch)</description>
    <defs></defs>
    <g id="Page-1" stroke="none" stroke-width="1" fill="none" fill-rule="evenodd" sketch:type="MSPage">
        <g id="g3019" sketch:type="MSLayerGroup" transform="translate(37.631257, 37.599935) scale(1, -1) translate(-37.631257, -37.599935) translate(0.631257, 0.599935)">
            <path d="M0.132276244,68.6090932 C0.132276244,71.4935045 2.57008488,73.8331909 5.5774157,73.8331909 L68.3714979,73.8331909 C71.3787297,73.8331909 73.8166374,71.4935045 73.8166374,68.6090932 L73.8166374,6.12943044 C73.8166374,3.24404464 71.3787297,0.90533275 68.3714979,0.90533275 L5.5774157,0.90533275 C2.57008488,0.90533275 0.132276244,3.24404464 0.132276244,6.12943044 L0.132276244,68.6090932 L0.132276244,68.6090932 L0.132276244,68.6090932 L0.132276244,68.6090932 Z M0.132276244,68.6090932" id="path14" fill="#0E76A8" sketch:type="MSShapeGroup"></path>
            <path d="M22.4682867,12.7850147 L22.4682867,45.7160271 L11.3389233,45.7160271 L11.3389233,12.7850147 L22.4682867,12.7850147 L22.4682867,12.7850147 L22.4682867,12.7850147 L22.4682867,12.7850147 Z M16.9035555,50.2122007 C20.7845896,50.2122007 23.2002039,52.740933 23.2002039,55.9011174 C23.1278742,59.1324377 20.7845896,61.5910086 16.9771732,61.5910086 C13.1701532,61.5910086 10.6810202,59.1324377 10.6810202,55.9011174 C10.6810202,52.740933 13.0961391,50.2122007 16.8310276,50.2122007 L16.9033573,50.2122007 L16.9033573,50.2122007 L16.9035555,50.2122007 L16.9035555,50.2122007 Z M16.9035555,50.2122007" id="path28" fill="#FFFFFF" sketch:type="MSShapeGroup"></path>
            <path d="M28.6265178,12.7850147 L39.755782,12.7850147 L39.755782,31.1750859 C39.755782,32.1592938 39.8281118,33.1425273 40.1219884,33.8460898 C40.9265326,35.8125567 42.7577625,37.849185 45.8322707,37.849185 C49.8594505,37.849185 51.4704215,34.8293232 51.4704215,30.4023365 L51.4704215,12.7850147 L62.598794,12.7850147 L62.598794,31.6671899 C62.598794,41.7821188 57.108176,46.4887765 49.7859318,46.4887765 C43.781971,46.4887765 41.146197,43.1882693 39.6817679,40.9401825 L39.7560793,40.9401825 L39.7560793,45.7160271 L28.6268151,45.7160271 C28.7728616,42.626004 28.6268151,12.7850147 28.6268151,12.7850147 L28.6268151,12.7850147 L28.6265178,12.7850147 L28.6265178,12.7850147 Z M28.6265178,12.7850147" id="path30" fill="#FFFFFF" sketch:type="MSShapeGroup"></path>
        </g>
    </g>
</svg>