<?xml version="1.0" encoding="UTF-8" standalone="no"?>
<svg width="172px" height="140px" viewBox="0 0 172 140" version="1.1" xmlns="http://www.w3.org/2000/svg" xmlns:xlink="http://www.w3.org/1999/xlink" xmlns:sketch="http://www.bohemiancoding.com/sketch/ns">
    <title>twitter</title>
    <description>Created with Sketch (http://www.bohemiancoding.com/sketch)</description>
    <defs></defs>
    <g id="Page-1" stroke="none" stroke-width="1" fill="none" fill-rule="evenodd" sketch:type="MSPage">
        <g id="twitter" sketch:type="MSLayerGroup" transform="translate(-1.000000, -1.000000)" fill="#A1A1A1">
            <path d="M172.5054,17.49885 C166.1957,20.29782 159.41351,22.18867 152.29688,23.03934 C159.56101,18.6848 165.14094,11.78942 167.76755,3.57259 C160.96821,7.60554 153.43825,10.53314 145.42294,12.111 C139.00519,5.27221 129.86051,1 119.73996,1 C100.30837,1 84.553,16.75365 84.553,36.18525 C84.553,38.94306 84.86428,41.62884 85.46455,44.204 C56.22111,42.73677 30.2946,28.72818 12.93994,7.44004 C9.91115,12.63666 8.17551,18.68052 8.17551,25.12914 C8.17551,37.33691 14.38745,48.10661 23.82883,54.4163 C18.0611,54.23365 12.63552,52.65065 7.89167,50.01547 C7.88767,50.1621 7.88767,50.30959 7.88767,50.45795 C7.88767,67.50562 20.01656,81.72601 36.11322,84.96061 C33.16075,85.76497 30.05221,86.19459 26.84333,86.19459 C24.57603,86.19459 22.37219,85.97335 20.22322,85.56345 C24.70123,99.54202 37.69536,109.71488 53.09314,109.99786 C41.05087,119.43582 25.87948,125.06121 9.39349,125.06121 C6.55335,125.06121 3.75267,124.89399 1,124.56898 C16.57186,134.55319 35.06703,140.37838 54.93768,140.37838 C119.65792,140.37838 155.05069,86.76314 155.05069,40.26451 C155.05069,38.73897 155.01639,37.222 154.94865,35.7119 C161.82259,30.75195 167.78756,24.55544 172.50483,17.49885 C172.50483,17.49885 167.78756,24.55544 172.50483,17.49885 L172.5054,17.49885 L172.5054,17.49885 Z M172.5054,17.49885" id="path5" sketch:type="MSShapeGroup"></path>
        </g>
    </g>
</svg>